<svg fill="none" height="272" viewBox="0 0 1319 272" width="1319" xmlns="http://www.w3.org/2000/svg" xmlns:xlink="http://www.w3.org/1999/xlink"><clipPath id="a"><path d="m395 4h86v188h-86z"/></clipPath><clipPath id="b"><path d="m0 1h76v183h-76z"/></clipPath><clipPath id="c"><path d="m867 0h76v183h-76z"/></clipPath><clipPath id="d"><path d="m778 87h69v69h-69z"/></clipPath><clipPath id="e"><path d="m313 48h69v69h-69z"/></clipPath><clipPath id="f"><path d="m245 203h69v69h-69z"/></clipPath><clipPath id="g"><path d="m105 123h69v69h-69z"/></clipPath><clipPath id="h"><path d="m1250 62h69v69h-69z"/></clipPath><clipPath id="i"><path d="m1090 82h69v69h-69z"/></clipPath><g clip-path="url(#a)"><g fill="#eef5f7"><path d="m432.633 157.923c1.386.75 2.918 1.195 4.491 1.304v-.935c-.97-.056-1.926-.255-2.838-.59l1.826-3.149c.331.099.669.173 1.012.221v-1.796c.287.025.576.025.864 0 .303.025.609.025.913 0v1.796c.334-.05.663-.124.987-.221l1.826 3.149c-.904.333-1.852.531-2.813.59v.935c1.572-.117 3.102-.561 4.491-1.304l-5.38-9.275z"/><path d="m426.488 148.254c.047 1.57.425 3.113 1.111 4.527l.814-.467c-.418-.869-.725-1.787-.913-2.731h3.652c.081.327.188.648.321.959l1.555-.886c.201.558.502 1.075.888 1.526l-1.555.91c.202.271.425.527.667.763l-1.802 3.149c-.749-.619-1.398-1.349-1.925-2.165l-.814.468c.892 1.295 2.043 2.392 3.381 3.223l5.355-9.276z"/><path d="m444.132 157.48c1.338-.83 2.489-1.927 3.381-3.223l-.79-.467c-.541.804-1.188 1.533-1.925 2.165l-1.826-3.149c.242-.237.465-.492.667-.763l-1.555-.91c.386-.451.687-.968.888-1.526l1.555.886c.123-.295.222-.64.321-.96h3.652c-.177.948-.484 1.867-.913 2.731l.814.468c.686-1.415 1.064-2.957 1.111-4.527h-10.685z"/><path d="m431.868 138.043c-1.333.837-2.483 1.933-3.381 3.223l.814.468c.541-.798 1.189-1.518 1.925-2.141l1.802 3.125c-.248.239-.472.503-.667.787l1.555.886c-.376.458-.676.973-.888 1.526l-1.555-.886c-.129.312-.236.633-.321.959h-3.652c.188-.945.495-1.862.913-2.731l-.814-.467c-.686 1.414-1.064 2.957-1.111 4.527h10.735z"/><path d="m443.367 137.6c-1.383-.735-2.904-1.179-4.466-1.304v.935c.96.071 1.906.27 2.813.591l-1.826 3.149c-.321 0-.666-.148-.987-.221v1.796c-.304-.026-.61-.026-.913 0-.288-.025-.577-.025-.864 0v-1.673c-.346 0-.691 0-1.012.221l-1.826-3.149c.915-.324 1.87-.522 2.838-.591v-.935c-1.571.121-3.1.565-4.491 1.304l5.355 9.276z"/><path d="m447.587 143.333c.429.864.736 1.783.913 2.731h-3.652c0-.32-.198-.64-.321-.959l-1.555.885c-.201-.557-.502-1.074-.888-1.525l1.555-.91c-.202-.272-.425-.527-.667-.763l1.802-3.125c.743.616 1.392 1.337 1.925 2.141l.814-.468c-.898-1.29-2.048-2.386-3.381-3.223l-5.305 9.202h10.734c-.047-1.57-.425-3.113-1.11-4.527z"/><path d="m474.115 168.552c.356-.604.936-1.044 1.616-1.224.679-.18 1.402-.085 2.012.265l.444-.763c-.679-.396-1.471-.553-2.25-.446-.778.107-1.498.472-2.044 1.036l-4.195-2.46 11.302-3.002-.222-.812-11.327 3.051 1.061-1.82-1.086-.64 11.352-3.051-.247-.91-12.338 3.272-2.345-1.329-.888 1.526-7.403-4.306 4.318-1.156.222.762 1.234-.319 4.936 2.854.814-1.403-4.565-2.608 3.627-.984-.444-1.55-3.652.984 1.382-2.46c.314.085.637.134.962.147.943 0 1.846-.373 2.513-1.037.666-.665 1.041-1.566 1.041-2.506 0-.939-.375-1.84-1.041-2.505-.667-.664-1.57-1.038-2.513-1.038-.31-.001-.619.049-.913.148l-1.407-2.46 3.603.959.42-1.55-3.652-.984 4.639-2.657-.814-1.403-4.936 2.904-1.16-.32-.222.787-4.269-1.156 7.403-4.281.889 1.525 2.467-1.402 12.117 3.247.247-.885-11.278-2.978 1.086-.639-1.086-1.846 11.253 3.15.197-.837-11.104-2.977 4.096-2.46c.552.553 1.271.91 2.047 1.017s1.565-.043 2.247-.427l-.469-.763c-.614.341-1.337.429-2.015.245s-1.257-.625-1.613-1.229c-.175-.301-.289-.635-.335-.98-.045-.346-.021-.697.071-1.034.091-.336.249-.651.464-.926.215-.276.483-.505.787-.676l-.444-.763c-.68.387-1.212.989-1.511 1.71-.299.722-.349 1.523-.142 2.276l-4.17 2.46 3.01-11.244-.789-.221-3.036 11.317-1.061-1.845-1.086.64 2.962-11.293-.889-.222-3.307 12.302-2.467 1.329.888 1.525-7.403 4.331 1.16-4.331.789.222.346-1.255 4.935-2.854-.814-1.403-4.491 2.658.962-3.593-1.579-.418-.913 3.592-1.407-2.46c.252-.214.461-.472.617-.763.416-.808.505-1.746.248-2.618s-.841-1.612-1.63-2.067-1.724-.59-2.61-.378c-.887.213-1.657.757-2.153 1.52-.136.287-.251.583-.345.886h-2.764l2.641-2.559-1.136-1.132-2.739 2.608v-5.265h-1.628v5.807l-.864.861.568.566-3.11 3.1v-8.587h1.752v-2.805l8.884-8.833-.642-.639-8.242 8.217v-1.23h-2.147l8.242-8.242-.616-.615-8.193 8.119v-4.699c.756-.201 1.425-.645 1.902-1.263.478-.619.737-1.377.738-2.157h-.888c.036.368-.007.741-.124 1.092-.117.352-.306.675-.556.949-.25.275-.554.494-.894.644s-.707.227-1.079.227-.739-.077-1.079-.227-.644-.369-.894-.644c-.25-.274-.439-.597-.556-.949-.118-.351-.16-.724-.124-1.092h-.888c.002.783.265 1.544.747 2.163s1.157 1.061 1.918 1.257v4.92l-8.094-8.34-.592.59 8.316 8.267h-2.122v1.255l-8.341-8.267-.667.664 9.008 8.981v2.657h1.801v8.636l-3.183-3.149.567-.566-.913-.911v-5.732h-1.604v5.24l-2.64-2.608-1.16 1.132 2.69 2.682h-2.888c-.063-.321-.179-.628-.345-.91-.22-.428-.525-.806-.896-1.112s-.8-.534-1.262-.669c-.462-.136-.947-.176-1.426-.119-.478.057-.939.21-1.356.451-.417.24-.781.563-1.069.947-.288.385-.494.824-.607 1.291s-.129.952-.048 1.425c.081.474.258.925.519 1.329.154.264.345.504.568.713l-1.382 2.461-.839-3.642-1.579.418.987 3.642-4.64-2.657-.814 1.402 4.935 2.903.321 1.157.765-.197 1.16 4.256-7.403-4.305.888-1.526-2.467-1.402-3.282-11.982-.864.221 3.035 11.244-1.086-.64-1.085 1.87-3.036-11.244-.839.222 2.986 11.096-4.072-2.46c.205-.757.154-1.56-.145-2.285s-.829-1.331-1.508-1.726l-.444.788c.61.35 1.057.927 1.242 1.605s.093 1.401-.255 2.011c-.361.606-.944 1.048-1.626 1.231-.682.184-1.409.096-2.026-.246l-.42.762c.684.385 1.476.533 2.252.422.777-.112 1.495-.476 2.042-1.037l4.195 2.461-11.302 2.927.197.812 11.352-3.051-1.061 1.821 1.086.64-11.352 3.051.247.91 12.338-3.272 2.468 1.328.889-1.525 7.403 4.306-4.319 1.181-.222-.788-1.234.32-4.935-2.854-.815 1.403 4.566 2.632-3.603.96.419 1.55 3.653-.96-1.382 2.461c-.314-.087-.637-.137-.963-.148-.942 0-1.846.373-2.512 1.038-.667.664-1.041 1.565-1.041 2.505s.374 1.841 1.041 2.505c.666.665 1.57 1.038 2.512 1.038.304.038.61.038.913 0l1.407 2.46-3.603-.959-.419 1.55 3.652.984-4.64 2.657.815 1.403 5.059-2.904 1.159.32.223-.787 4.269 1.156-7.403 4.282-.889-1.526-2.468 1.402-12.116-3.247-.247.885 11.278 2.978-1.086.639 1.061 1.846-11.253-3.002-.247.836 11.13 2.978-4.072 2.46c-.552-.553-1.271-.911-2.047-1.017-.776-.107-1.565.043-2.247.426l.42.788c.613-.351 1.34-.447 2.023-.267.684.18 1.269.62 1.629 1.226.348.611.44 1.334.255 2.012s-.631 1.255-1.242 1.605l.444.763c.68-.387 1.212-.989 1.511-1.711.3-.721.35-1.522.142-2.275l4.171-2.46-3.035 10.924.789.221 3.036-11.318 1.061 1.846 1.085-.64-3.01 11.342.913.247 3.282-12.303 2.344-1.328-.888-1.526 7.403-4.33-1.184 4.33-.765-.196-.346 1.23-4.935 2.854.814 1.402 4.565-2.632-.987 3.592 1.58.418.987-3.641 1.357 2.46c-.23.227-.429.484-.592.763-.262.403-.439.855-.52 1.328-.081.474-.065.958.048 1.425s.319.906.608 1.291c.288.385.651.707 1.068.948.417.24.879.393 1.357.45s.963.017 1.425-.118c.462-.136.892-.364 1.263-.67s.675-.684.895-1.111c.162-.275.279-.574.346-.886h2.764l-2.616 2.633 1.135 1.156 2.665-2.682v5.339h1.629v-5.806l.864-.861-.568-.566 3.134-3.125v8.464h-1.777v2.805l-8.884 8.833.642.639 8.242-8.217v1.23h2.147l-8.242 8.242.617.615 8.143-8.119v4.699c-.763.192-1.44.633-1.923 1.253-.482.62-.744 1.382-.742 2.167h.889c-.036-.369.006-.741.123-1.092.117-.352.306-.675.556-.95.25-.274.555-.493.895-.643.339-.15.707-.227 1.078-.227.372 0 .739.077 1.079.227s.645.369.894.643c.25.275.44.598.557.95.117.351.159.723.123 1.092h.889c-.003-.783-.266-1.544-.748-2.163s-1.157-1.061-1.918-1.257v-4.921l8.267 8.243.593-.591-8.317-8.267h2.123v-1.255l8.34 8.292.667-.689-9.007-8.956v-2.583h-1.753v-8.636l3.159 3.174-.567.566.913.91v5.708h1.604v-5.167l2.64 2.633 1.135-1.157-2.665-2.657h2.641c.093.311.208.616.345.911.471.815 1.248 1.411 2.16 1.655.912.245 1.883.118 2.701-.351.819-.47 1.416-1.245 1.661-2.154.246-.909.119-1.878-.353-2.693-.169-.267-.368-.515-.592-.739l1.382-2.46.962 3.592 1.58-.418-.987-3.641 4.639 2.681.79-1.402-4.936-2.903-.321-1.181-.765.197-1.159-4.257 7.403 4.306-.889 1.525.42.222 2.023 1.181 3.258 12.08.864-.221-2.912-11.146 1.085.64 1.086-1.87 3.035 11.244.84-.221-2.986-11.097 4.071 2.461c-.204.756-.153 1.559.146 2.284s.829 1.331 1.508 1.726l.444-.763c-.334-.164-.63-.395-.869-.68s-.415-.617-.517-.974c-.103-.357-.129-.731-.077-1.099s.18-.721.377-1.036zm-7.724-22.562c.471 0 .923.187 1.257.519.333.332.52.783.52 1.253s-.187.92-.52 1.252c-.334.333-.786.519-1.257.519s-.923-.186-1.256-.519c-.333-.332-.521-.782-.521-1.252s.188-.921.521-1.253.785-.519 1.256-.519zm-56.757 3.543c-.352 0-.695-.104-.987-.298-.293-.195-.52-.472-.655-.795-.134-.324-.17-.68-.101-1.024.068-.343.238-.659.486-.907.249-.248.565-.416.91-.485.345-.068.702-.033 1.027.101.324.134.602.361.797.653.195.291.299.633.299.984 0 .235-.046.467-.137.683-.091.217-.224.413-.392.578-.167.165-.366.295-.585.383-.218.087-.452.131-.687.127zm51.822-8.291-.198.787 1.234.345 1.604 2.755c-.37.333-.667.738-.871 1.192-.204.453-.311.944-.313 1.441-.002.491.101.978.3 1.427.2.45.493.852.859 1.181l-1.604 2.78-1.184.295.197.788-5.898 1.574-4.441-2.46c.394-.942.684-1.923.863-2.928.43-.089.828-.292 1.154-.586.325-.294.566-.669.697-1.087h1.95v1.771h1.776v-.688c.383.345.857.573 1.367.655.509.081 1.032.014 1.503-.194.472-.209.873-.549 1.155-.981.281-.431.431-.934.431-1.449 0-.514-.15-1.018-.431-1.449-.282-.431-.683-.772-1.155-.98-.471-.209-.994-.276-1.503-.194-.51.082-.984.309-1.367.655v-.689h-1.776v1.771h-1.95c-.131-.417-.372-.793-.697-1.087-.326-.294-.724-.496-1.154-.586-.179-1.004-.469-1.986-.863-2.927l4.491-2.461zm-10.735-18.872c.113-.21.268-.396.455-.545s.403-.257.635-.32c.231-.062.473-.076.71-.042.237.035.464.117.668.243.204.119.383.278.526.466.143.189.247.403.306.632.06.228.074.466.041.7s-.111.459-.232.662c-.256.36-.639.612-1.071.705-.433.093-.886.022-1.269-.199-.383-.222-.669-.579-.802-1s-.104-.876.083-1.277zm-6.613 1.919.567.566.913-.885h3.11c.097.482.296.939.583 1.34.288.401.656.736 1.083.985.426.249.901.404 1.392.457s.988.002 1.458-.15l1.603 2.781-.32 1.181.789.196-1.579 5.905-4.467 2.461c-.613-.807-1.307-1.549-2.072-2.215.116-.423.127-.868.033-1.297-.095-.428-.293-.828-.576-1.163l.962-1.673 1.555.886.888-1.526-.617-.344c.627-.202 1.161-.621 1.506-1.181.34-.62.419-1.349.22-2.028-.199-.678-.66-1.25-1.282-1.589-.621-.339-1.353-.419-2.033-.22-.68.198-1.254.658-1.594 1.278-.32.568-.416 1.235-.272 1.87l-.592-.345-.888 1.526 1.53.886-.963 1.673c-.442-.085-.899-.06-1.329.073-.431.133-.822.37-1.138.689-.953-.33-1.937-.561-2.937-.689v-5.166zm-21.149-2.583c.204-.126.431-.208.668-.243.237-.034.479-.02.71.042.232.063.448.171.635.32.188.149.342.335.455.545.161.301.23.642.199.981-.032.34-.162.662-.375.929-.212.267-.499.465-.824.572-.324.106-.673.115-1.003.026-.33-.088-.627-.272-.853-.526-.227-.255-.375-.571-.424-.908s.001-.681.146-.99c.144-.309.376-.569.666-.748zm-1.826 7.652 1.604-2.756c.476.153.978.206 1.475.155.497-.05.978-.204 1.412-.45.426-.248.795-.582 1.083-.98.289-.399.492-.852.596-1.333h3.208l.863.861.592-.566 4.393 4.282v5.166c-1.016.128-2.017.359-2.986.689-.314-.323-.705-.562-1.136-.696-.431-.133-.889-.156-1.332-.066l-.962-1.673 1.481-.96-.864-1.525-.617.344c.116-.503.082-1.028-.099-1.512-.181-.483-.5-.903-.918-1.207s-.916-.479-1.433-.503-1.029.104-1.474.368c-.612.355-1.059.937-1.244 1.618-.185.682-.092 1.409.257 2.023.343.562.878.981 1.506 1.181l-.593.345.889 1.525 1.53-.885.962 1.673c-.285.334-.482.734-.573 1.164-.09.43-.071.875.055 1.296-.78.658-1.483 1.401-2.098 2.214l-4.516-2.608-1.554-5.806.789-.222zm-6.49 24.924.198-.787-1.234-.32-1.604-2.781c.379-.326.684-.73.893-1.184.208-.454.316-.948.316-1.448-.006-.491-.112-.975-.311-1.423-.2-.448-.488-.852-.849-1.185l1.604-2.756 1.16-.32-.198-.787 5.898-1.575 4.442 2.461c-.388.943-.678 1.924-.863 2.928-.424.104-.814.312-1.137.604s-.568.659-.714 1.069h-1.925v-1.772h-1.802v.787c-.382-.345-.856-.573-1.366-.655-.509-.081-1.032-.014-1.504.194-.472.209-.872.549-1.154.981-.281.431-.431.934-.431 1.449 0 .514.15 1.018.431 1.449.282.431.682.772 1.154.98.472.209.995.276 1.504.194.51-.082.984-.309 1.366-.655v.689h1.802v-1.771h1.925c.131.417.372.793.697 1.087s.724.496 1.154.586c.179 1.004.469 1.986.863 2.928l-4.466 2.46zm10.735 18.896c-.182.297-.447.535-.763.683s-.668.2-1.014.15c-.345-.051-.668-.202-.928-.434-.26-.233-.446-.536-.534-.873-.087-.337-.074-.692.04-1.022.113-.329.321-.617.599-.829.277-.212.61-.338.958-.362.349-.024.696.055 1 .226.203.122.379.282.519.472s.24.405.296.635c.055.229.063.467.025.699-.038.233-.122.455-.248.655zm6.613-1.944-.567-.566-.913.911h-3.184c-.088-.509-.286-.992-.58-1.417s-.677-.781-1.123-1.044c-.425-.246-.898-.4-1.387-.451s-.983.002-1.45.156l-1.605-2.78.321-1.181-.789-.197 1.579-5.881 4.467-2.46c.614.814 1.317 1.556 2.097 2.214-.128.421-.148.867-.058 1.297.091.43.289.83.576 1.164l-.962 1.673-1.53-.886-.888 1.526.592.344c-.517.142-.978.436-1.325.843-.346.408-.561.91-.617 1.441-.056.532.05 1.067.304 1.538.254.47.644.853 1.12 1.099.444.264.957.392 1.474.368.516-.024 1.015-.199 1.433-.503s.737-.724.918-1.208c.18-.483.215-1.009.098-1.511l.617.344.864-1.525-1.53-.886.962-1.673c.443.09.901.067 1.332-.067.431-.133.822-.372 1.136-.696.972.327 1.971.566 2.986.714v5.167zm21.148 2.461c-.303.171-.651.25-.999.226-.349-.024-.682-.15-.959-.362s-.485-.5-.599-.829c-.113-.33-.127-.685-.039-1.022s.273-.641.533-.873.583-.383.929-.434c.345-.05.698.002 1.014.15s.581.386.762.683c.142.21.238.448.28.698s.03.506-.035.751c-.066.245-.183.473-.344.668-.162.196-.363.355-.592.467zm1.827-7.652-1.604 2.78c-.473-.163-.975-.223-1.473-.177-.498.047-.981.2-1.415.448-.425.248-.794.582-1.083.98s-.491.852-.595 1.332h-3.208l-.863-.861-.568.566-4.319-4.306v-5.117c1.007-.151 1.998-.389 2.962-.714.314.324.705.563 1.136.696.431.134.889.157 1.331.067l.963 1.673-1.53.886.888 1.525.592-.344c-.104.5-.062 1.02.122 1.497s.503.891.917 1.192.906.477 1.418.506c.512.03 1.021-.089 1.467-.341.612-.355 1.059-.937 1.244-1.619.185-.681.093-1.408-.257-2.023-.344-.56-.878-.978-1.505-1.181l.617-.344-.888-1.525-1.555.885-.963-1.673c.284-.335.482-.735.577-1.163.094-.429.083-.874-.034-1.297.766-.666 1.46-1.408 2.073-2.215l4.516 2.608 1.555 5.807-.79.221zm11.4 0-1.085-.615-.321-1.206-15.843-9.128c-1.056 1.562-2.436 2.879-4.047 3.863l3.183 5.462c.371-.103.764-.082 1.121.061.357.142.657.397.854.726.12.204.198.429.231.663.033.233.019.471-.041.7-.059.228-.163.443-.306.631-.143.189-.322.347-.526.467-.372.194-.801.252-1.211.161s-.775-.323-1.029-.657c-.255-.333-.383-.746-.361-1.164s.191-.815.479-1.121l-3.134-5.437c-1.669.872-3.501 1.391-5.38 1.525v18.256l.864.862v1.254h-3.455v-1.107l.888-.886v-18.256c-1.88-.127-3.713-.647-5.379-1.525l-3.159 5.437c.274.272.453.624.511 1.005s-.009.771-.19 1.111c-.242.411-.637.71-1.098.835-.461.124-.953.063-1.37-.17-.356-.224-.622-.566-.749-.966-.127-.401-.107-.833.056-1.22s.459-.704.834-.894c.376-.19.807-.241 1.216-.144l3.159-5.462c-1.609-.977-2.982-2.296-4.022-3.863l-15.868 9.129-.321 1.205-1.085.615-1.777-3.051 1.086-.615 1.209.32 15.867-9.128c-.831-1.688-1.293-3.533-1.357-5.413h-6.317c-.108.418-.365.781-.723 1.023s-.792.346-1.221.292c-.429-.055-.824-.263-1.11-.587-.286-.323-.443-.74-.443-1.171s.157-.847.443-1.171c.286-.323.681-.532 1.11-.586s.863.049 1.221.291.615.606.723 1.023h6.317c.064-1.879.526-3.724 1.357-5.413l-15.867-9.128-1.209.345-1.086-.64 1.777-3.075 1.085.639.321 1.206 15.868 9.128c1.046-1.561 2.418-2.878 4.022-3.863l-3.257-5.585c-.417.117-.862.078-1.252-.109-.389-.186-.698-.509-.866-.906-.169-.397-.186-.842-.049-1.251s.419-.755.793-.971c.374-.217.815-.29 1.239-.206.424.085.803.32 1.066.663.262.343.39.77.359 1.2-.03.43-.217.835-.525 1.137l3.158 5.364c1.667-.878 3.499-1.398 5.38-1.526v-18.157l-.888-.862v-1.254h3.553v1.23l-.962.886v18.256c1.872.131 3.696.65 5.355 1.525l3.158-5.437c-.238-.234-.405-.529-.483-.853-.077-.324-.062-.663.045-.978.107-.316.301-.595.56-.805.259-.211.572-.345.903-.386s.668.011.97.152c.303.141.56.363.742.643.181.279.28.604.285.937s-.084.661-.258.945c-.201.331-.505.587-.866.729-.361.143-.759.163-1.133.059l-3.158 5.462c1.605.99 2.984 2.306 4.047 3.863l15.842-9.129.321-1.205 1.086-.615 1.777 3.051-1.086.615-1.209-.32-15.868 9.128c.831 1.688 1.294 3.533 1.358 5.413h6.317c.093-.375.308-.71.612-.95.303-.24.678-.374 1.066-.379.471 0 .923.187 1.256.519.334.332.521.783.521 1.253s-.187.92-.521 1.252c-.333.333-.785.519-1.256.519-.388-.005-.763-.138-1.066-.378-.304-.241-.519-.575-.612-.95h-6.317c-.064 1.879-.527 3.724-1.358 5.413l15.868 9.128 1.184-.345 1.111.64z"/></g><path d="m437.994 173.301v-134.301" stroke="#a9c7e5" stroke-miterlimit="10" stroke-width=".73"/></g><g clip-path="url(#b)"><g fill="#eef5f7"><path d="m58.4123 156.258-13.4945-9.332 31.0182-2.477-31.0609-2.499 13.4733-9.311-14.8163 7.047 13.3879-28.19-17.6729 25.627-1.3004-16.337-1.3218 16.359-17.6942-25.627 13.3879 28.211-14.7949-7.048 13.4945 9.312-31.0821648 2.498 31.2313648 2.456-13.4945 9.29 14.7949-7.026-13.3879 28.19 17.6943-25.627 1.3004 16.358 1.3217-16.337 17.6729 25.627-13.3666-28.19zm-19.6555-9.695-.7675 9.525-.7461-9.525-2.8567 4.143 2.1319-4.549-8.5274 4.1 7.8452-5.424-4.9885-.384 4.9885-.406-7.8452-5.425 8.5274 4.101-2.1319-4.528 2.8567 4.143.7461-9.524.7675 9.524 2.8354-4.143-2.1319 4.528 8.5274-4.101-7.8452 5.425 4.9884.406-4.9884.384 7.8664 5.424-8.5273-4.1 2.1318 4.528z"/><path d="m37.9893 116.429c.9167 0 1.6415-2.584 1.6415-5.766s-.7248-5.766-1.6415-5.766-1.6415 2.584-1.6415 5.766.7462 5.766 1.6415 5.766z"/><path d="m30.6131 120.53c0 1.431.4051 2.498.8101 2.498.4051 0 .7035-1.067.7888-2.498 1.4283 0 2.4943-.427 2.4943-.812 0-.384-1.066-.704-2.4943-.79 0-1.431-.4051-2.499-.7888-2.499s-.7248 1.068-.8101 2.499c-1.4283 0-2.4942.406-2.4942.79 0 .385 1.0659.705 2.4942.812z"/><path d="m43.788 120.53c0 1.431.405 2.498.7887 2.498.3838 0 .7035-1.067.7888-2.498 1.4283 0 2.4942-.427 2.4942-.812 0-.384-1.0659-.704-2.4942-.79 0-1.431-.405-2.499-.7888-2.499-.3837 0-.7034 1.068-.7887 2.499-1.4284 0-2.4943.406-2.4943.79 0 .385 1.0659.705 2.4943.812z"/><path d="m7.97303 128.987c2.75007 1.58 5.35087 2.135 5.79857 1.452s-1.4069-2.734-4.15701-4.271c-2.75007-1.538-5.35093-2.136-5.81994-1.452-.469.683 1.407 2.669 4.17838 4.271z"/><path d="m10.4886 136.141c-.1919.342.5543 1.153 1.7481 1.944-.6395 1.281-.8954 2.37-.5543 2.562s1.1512-.576 1.94-1.772c1.2791.64 2.3664.897 2.5582.576.1919-.32-.5755-1.153-1.7694-1.943.6396-1.303.8954-2.371.5756-2.563s-1.1512.555-1.94 1.751c-1.3004-.64-2.3663-.897-2.5582-.555z"/><path d="m18.8241 126.595c-.6395 1.303-.8953 2.37-.5542 2.563.3411.192 1.1511-.556 1.9399-1.752 1.2791.641 2.3664.897 2.5582.556.1919-.342-.5755-1.153-1.7694-1.944.6396-1.281.8954-2.37.5543-2.562-.3411-.193-1.1299.576-1.94 1.772-1.2791-.641-2.3663-.897-2.5582-.576-.1918.32.5756 1.217 1.7694 1.943z"/><path d="m7.97303 159.91c-2.77139 1.602-4.62609 3.524-4.26368 4.272.36241.747 3.04855.128 5.81994-1.453 2.77141-1.58 4.60471-3.523 4.15701-4.271-.4477-.747-2.9632-.149-5.71327 1.452z"/><path d="m21.5529 165.378c.3411-.193 0-1.282-.5543-2.563 1.1939-.812 1.9613-1.623 1.7694-1.944-.1918-.32-1.2791 0-2.5582.556-.7888-1.196-1.5988-1.965-1.9399-1.773s-.0001 1.281.5542 2.563c-1.1938.79-1.9612 1.623-1.7694 1.943.1919.321 1.2791 0 2.5582-.555.8954 1.196 1.6202 1.965 1.94 1.773z"/><path d="m13.6224 150.087c-.7888-1.196-1.5989-1.944-1.94-1.752-.3411.193 0 1.26.5543 2.563-1.1938.79-1.94 1.602-1.7481 1.922.1919.321 1.2578 0 2.5582-.555.7888 1.196 1.5989 1.965 1.94 1.772.3411-.192 0-1.281-.5756-2.562 1.1939-.79 1.9613-1.602 1.7694-1.944-.1918-.341-1.2791-.171-2.5582.556z"/><path d="m37.9893 172.468c-.8953 0-1.6415 2.584-1.6415 5.766s.7462 5.766 1.6415 5.766c.8954 0 1.6415-2.584 1.6415-5.766s-.7248-5.766-1.6415-5.766z"/><path d="m45.3655 168.367c0-1.43-.405-2.498-.7888-2.498-.3837 0-.7034 1.068-.7887 2.498-1.4284 0-2.4943.406-2.4943.791 0 .384 1.0659.726 2.4943.811 0 1.431.405 2.499.7887 2.499.3838 0 .7035-1.068.7888-2.499 1.4283 0 2.4942-.406 2.4942-.811 0-.406-1.0659-.705-2.4942-.791z"/><path d="m32.212 168.367c0-1.43-.4051-2.498-.7888-2.498s-.7248 1.068-.8101 2.498c-1.4283 0-2.4942.406-2.4942.791 0 .384 1.0659.726 2.4942.811 0 1.431.405 2.499.7888 2.499.3837 0 .7248-1.068.8101-2.499 1.4283 0 2.4943-.427 2.4943-.811 0-.385-1.066-.705-2.4943-.791z"/><path d="m68.027 159.91c-2.7501-1.601-5.351-2.135-5.82-1.452-.469.684 1.407 2.712 4.2637 4.271s5.3509 2.136 5.7986 1.453c.4477-.684-1.4923-2.67-4.2423-4.272z"/><path d="m65.5113 152.735c.1919-.321-.5755-1.132-1.7694-1.922.6396-1.303.8954-2.371.5543-2.563s-1.1299.555-1.94 1.751c-1.2791-.641-2.3663-.897-2.5582-.555s.5756 1.153 1.7695 1.943c-.6396 1.282-.8954 2.371-.5543 2.563s1.1299-.577 1.94-1.773c1.2791.641 2.3236.897 2.5581.556z"/><path d="m57.1546 162.217c.6395-1.282.8953-2.371.5756-2.563-.3198-.192-1.1512.577-1.94 1.773-1.2791-.641-2.3663-.897-2.5582-.556-.1919.342.5543 1.132 1.7481 1.944-.6395 1.281-.874 2.37-.5543 2.563.3198.192 1.1512-.577 1.94-1.773 1.2791.641 2.3663.897 2.5582.555.1918-.342-.5543-1.153-1.7694-1.943z"/><path d="m68.0269 128.987c2.7501-1.602 4.626-3.524 4.157-4.271-.469-.748-3.0485-.15-5.7986 1.452-2.75 1.602-4.626 3.524-4.2636 4.271s3.1551.128 5.9052-1.452z"/><path d="m54.4258 123.52c-.3197.192.0001 1.281.5543 2.562-1.1938.791-1.94 1.602-1.7481 1.944.1919.341 1.2791 0 2.5582-.555.7888 1.195 1.5989 1.943 1.9187 1.751.3198-.193 0-1.26-.5543-2.563 1.2151-.79 1.9612-1.602 1.7694-1.943-.1919-.342-1.2791 0-2.5582.576-.7888-1.196-1.5989-1.965-1.94-1.772z"/><path d="m62.3562 138.875c.8101 1.196 1.6202 1.964 1.94 1.772s0-1.281-.5543-2.562c1.1939-.791 1.9613-1.602 1.7694-1.944-.1918-.342-1.279 0-2.5581.555-.8101-1.196-1.5989-1.943-1.94-1.751s0 1.26.5543 2.563c-1.1939.79-1.9614 1.602-1.7695 1.943.1919.342 1.2152.064 2.5582-.576z"/></g><path d="m38 170v-130" stroke="#a9c7e5" stroke-miterlimit="10" stroke-width=".79"/></g><g clip-path="url(#c)"><g fill="#eef5f7"><path d="m925.412 155.258-13.494-9.332 31.018-2.477-31.061-2.499 13.473-9.311-14.816 7.047 13.388-28.19-17.673 25.627-1.3-16.337-1.322 16.359-17.694-25.627 13.388 28.211-14.795-7.048 13.494 9.312-31.082 2.498 31.231 2.456-13.494 9.29 14.795-7.026-13.388 28.19 17.694-25.627 1.301 16.358 1.321-16.337 17.673 25.627-13.366-28.19zm-19.655-9.695-.768 9.525-.746-9.525-2.856 4.143 2.131-4.549-8.527 4.1 7.845-5.424-4.988-.384 4.988-.406-7.845-5.425 8.527 4.101-2.131-4.528 2.856 4.143.746-9.524.768 9.524 2.835-4.143-2.132 4.528 8.528-4.101-7.846 5.425 4.989.406-4.989.384 7.867 5.424-8.527-4.1 2.131 4.528z"/><path d="m904.989 115.429c.917 0 1.642-2.584 1.642-5.766s-.725-5.766-1.642-5.766c-.916 0-1.641 2.584-1.641 5.766s.746 5.766 1.641 5.766z"/><path d="m897.613 119.53c0 1.431.405 2.498.81 2.498s.704-1.067.789-2.498c1.428 0 2.494-.427 2.494-.812 0-.384-1.066-.704-2.494-.79 0-1.431-.405-2.499-.789-2.499-.383 0-.725 1.068-.81 2.499-1.428 0-2.494.406-2.494.79 0 .385 1.066.705 2.494.812z"/><path d="m910.788 119.53c0 1.431.405 2.498.789 2.498.383 0 .703-1.067.789-2.498 1.428 0 2.494-.427 2.494-.812 0-.384-1.066-.704-2.494-.79 0-1.431-.406-2.499-.789-2.499-.384 0-.704 1.068-.789 2.499-1.428 0-2.494.406-2.494.79 0 .385 1.066.705 2.494.812z"/><path d="m874.973 127.987c2.75 1.58 5.351 2.135 5.799 1.452.447-.683-1.407-2.734-4.157-4.271-2.75-1.538-5.351-2.136-5.82-1.452-.469.683 1.407 2.669 4.178 4.271z"/><path d="m877.489 135.141c-.192.342.554 1.153 1.748 1.944-.64 1.281-.896 2.37-.555 2.562.342.192 1.152-.576 1.94-1.772 1.28.64 2.367.897 2.559.576.191-.32-.576-1.153-1.77-1.943.64-1.303.896-2.371.576-2.563s-1.151.555-1.94 1.751c-1.301-.64-2.367-.897-2.558-.555z"/><path d="m885.824 125.595c-.639 1.303-.895 2.37-.554 2.563.341.192 1.151-.556 1.94-1.752 1.279.641 2.366.897 2.558.556.192-.342-.576-1.153-1.769-1.944.639-1.281.895-2.37.554-2.562-.341-.193-1.13.576-1.94 1.772-1.279-.641-2.366-.897-2.558-.576-.192.32.575 1.217 1.769 1.943z"/><path d="m874.973 158.91c-2.771 1.602-4.626 3.524-4.264 4.272.363.747 3.049.128 5.82-1.453 2.772-1.58 4.605-3.523 4.157-4.271-.447-.747-2.963-.149-5.713 1.452z"/><path d="m888.553 164.378c.341-.193 0-1.282-.554-2.563 1.193-.812 1.961-1.623 1.769-1.944-.192-.32-1.279 0-2.558.556-.789-1.196-1.599-1.965-1.94-1.773s0 1.281.554 2.563c-1.194.79-1.961 1.623-1.769 1.943.192.321 1.279 0 2.558-.555.895 1.196 1.62 1.965 1.94 1.773z"/><path d="m880.622 149.087c-.788-1.196-1.598-1.944-1.94-1.752-.341.193 0 1.26.555 2.563-1.194.79-1.94 1.602-1.748 1.922.191.321 1.257 0 2.558-.555.789 1.196 1.599 1.965 1.94 1.772.341-.192 0-1.281-.576-2.562 1.194-.79 1.961-1.602 1.77-1.944-.192-.341-1.279-.171-2.559.556z"/><path d="m904.989 171.468c-.895 0-1.641 2.584-1.641 5.766s.746 5.766 1.641 5.766c.896 0 1.642-2.584 1.642-5.766s-.725-5.766-1.642-5.766z"/><path d="m912.366 167.367c0-1.43-.406-2.498-.789-2.498-.384 0-.704 1.068-.789 2.498-1.428 0-2.494.406-2.494.791 0 .384 1.066.726 2.494.811 0 1.431.405 2.499.789 2.499.383 0 .703-1.068.789-2.499 1.428 0 2.494-.406 2.494-.811 0-.406-1.066-.705-2.494-.791z"/><path d="m899.212 167.367c0-1.43-.405-2.498-.789-2.498-.383 0-.725 1.068-.81 2.498-1.428 0-2.494.406-2.494.791 0 .384 1.066.726 2.494.811 0 1.431.405 2.499.789 2.499s.725-1.068.81-2.499c1.428 0 2.494-.427 2.494-.811 0-.385-1.066-.705-2.494-.791z"/><path d="m935.027 158.91c-2.75-1.601-5.351-2.135-5.82-1.452-.469.684 1.407 2.712 4.264 4.271 2.856 1.559 5.351 2.136 5.798 1.453.448-.684-1.492-2.67-4.242-4.272z"/><path d="m932.511 151.735c.192-.321-.575-1.132-1.769-1.922.639-1.303.895-2.371.554-2.563s-1.13.555-1.94 1.751c-1.279-.641-2.366-.897-2.558-.555s.576 1.153 1.769 1.943c-.639 1.282-.895 2.371-.554 2.563s1.13-.577 1.94-1.773c1.279.641 2.324.897 2.558.556z"/><path d="m924.155 161.217c.639-1.282.895-2.371.575-2.563s-1.151.577-1.94 1.773c-1.279-.641-2.366-.897-2.558-.556-.192.342.554 1.132 1.748 1.944-.639 1.281-.874 2.37-.554 2.563.32.192 1.151-.577 1.94-1.773 1.279.641 2.366.897 2.558.555s-.554-1.153-1.769-1.943z"/><path d="m935.027 127.987c2.75-1.602 4.626-3.524 4.157-4.271-.469-.748-3.049-.15-5.799 1.452s-4.626 3.524-4.263 4.271c.362.747 3.155.128 5.905-1.452z"/><path d="m921.426 122.52c-.32.192 0 1.281.554 2.562-1.194.791-1.94 1.602-1.748 1.944.192.341 1.279 0 2.558-.555.789 1.195 1.599 1.943 1.919 1.751.32-.193 0-1.26-.554-2.563 1.215-.79 1.961-1.602 1.769-1.943-.192-.342-1.279 0-2.558.576-.789-1.196-1.599-1.965-1.94-1.772z"/><path d="m929.356 137.875c.81 1.196 1.62 1.964 1.94 1.772s0-1.281-.554-2.562c1.194-.791 1.961-1.602 1.769-1.944s-1.279 0-2.558.555c-.81-1.196-1.599-1.943-1.94-1.751s0 1.26.554 2.563c-1.193.79-1.961 1.602-1.769 1.943.192.342 1.215.064 2.558-.576z"/></g><path d="m905 169v-130" stroke="#a9c7e5" stroke-miterlimit="10" stroke-width=".79"/></g><g clip-path="url(#d)"><path d="m815.861 120.583 9.417-4.277-10.306 3.694 14.195-15.25-15.028 14.083 3.889-9.972-4.639 9.528-.945-31.389-.833 31.111-4.278-9.417 3.695 10.306-15.25-14.167 14.083 15.028-9.972-3.889 9.5 4.639-31.389.945 31.139.805-9.389 4.306 10.278-3.667-14.195 15.194 15.028-14.083-3.889 10 4.639-9.5.945 31.389.833-31.139 4.278 9.389-3.667-10.306 15.222 14.195-14.111-15.056 10.028 3.917-9.528-4.639 31.389-.944z" fill="#fff"/></g><g clip-path="url(#e)"><path d="m350.861 81.5833 9.417-4.2777-10.306 3.6944 14.195-15.25-15.028 14.0833 3.889-9.9722-4.639 9.5278-.945-31.3889-.833 31.1111-4.278-9.4167 3.695 10.3056-15.25-14.1667 14.083 15.0278-9.972-3.8889 9.5 4.6389-31.389.9445 31.139.8055-9.389 4.3056 10.278-3.6667-14.195 15.1944 15.028-14.0833-3.889 10 4.639-9.5.945 31.3889.833-31.1389 4.278 9.3889-3.667-10.3056 15.222 14.1945-14.111-15.0556 10.028 3.9167-9.528-4.6389 31.389-.9444z" fill="#fff"/></g><g clip-path="url(#f)"><path d="m282.861 236.583 9.417-4.277-10.306 3.694 14.195-15.25-15.028 14.083 3.889-9.972-4.639 9.528-.945-31.389-.833 31.111-4.278-9.417 3.695 10.306-15.25-14.167 14.083 15.028-9.972-3.889 9.5 4.639-31.389.945 31.139.805-9.389 4.306 10.278-3.667-14.195 15.194 15.028-14.083-3.889 10 4.639-9.5.945 31.389.833-31.139 4.278 9.389-3.667-10.306 15.222 14.195-14.111-15.056 10.028 3.917-9.528-4.639 31.389-.944z" fill="#fff"/></g><g clip-path="url(#g)"><path d="m142.861 156.583 9.417-4.277-10.306 3.694 14.195-15.25-15.028 14.083 3.889-9.972-4.639 9.528-.945-31.389-.833 31.111-4.278-9.417 3.695 10.306-15.25-14.167 14.083 15.028-9.972-3.889 9.5 4.639-31.389.945 31.139.805-9.389 4.306 10.278-3.667-14.195 15.194 15.028-14.083-3.889 10 4.639-9.5.945 31.389.833-31.139 4.278 9.389-3.667-10.306 15.222 14.195-14.111-15.056 10.028 3.917-9.528-4.639 31.389-.944z" fill="#fff"/></g><g clip-path="url(#h)"><path d="m1287.86 95.5833 9.42-4.2777-10.31 3.6944 14.2-15.25-15.03 14.0833 3.89-9.9722-4.64 9.5278-.95-31.3889-.83 31.1111-4.28-9.4167 3.7 10.3056-15.25-14.1667 14.08 15.0278-9.97-3.8889 9.5 4.6389-31.39.9445 31.14.8055-9.39 4.3059 10.28-3.667-14.2 15.194 15.03-14.0829-3.89 9.9999 4.64-9.4999.95 31.3889.83-31.1389 4.28 9.3889-3.67-10.3056 15.22 14.1946-14.11-15.0557 10.03 3.9167-9.53-4.6389 31.39-.9444z" fill="#fff"/></g><g clip-path="url(#i)"><path d="m1127.86 115.583 9.42-4.277-10.31 3.694 14.2-15.25-15.03 14.083 3.89-9.972-4.64 9.528-.95-31.389-.83 31.111-4.28-9.417 3.7 10.306-15.25-14.1667 14.08 15.0277-9.97-3.889 9.5 4.639-31.39.945 31.14.805-9.39 4.306 10.28-3.667-14.2 15.194 15.03-14.083-3.89 10 4.64-9.5.95 31.389.83-31.139 4.28 9.389-3.67-10.306 15.22 14.195-14.11-15.056 10.03 3.917-9.53-4.639 31.39-.944z" fill="#fff"/></g></svg>